<svg xmlns="http://www.w3.org/2000/svg" width="250" height="253" viewBox="0 0 250 253">
<g>
<path d="M 217.03 244.75 L 210.95 253.00 L 74.84 253.00 C119.51,253.00 122.20,252.90 121.72,251.25 C121.44,250.29 119.84,245.68 118.18,241.00 C116.51,236.32 114.38,229.69 113.44,226.25 C112.50,222.81 111.33,220.00 110.83,220.00 C108.96,220.00 101.39,224.32 98.50,227.03 C94.94,230.38 75.16,239.05 63.50,242.37 C58.19,243.89 57.00,244.74 57.00,247.06 C57.00,248.37 56.31,249.00 54.88,249.00 C52.87,249.00 52.84,248.89 54.38,246.54 C55.27,245.18 56.00,242.74 56.00,241.12 C56.00,238.67 56.75,237.75 60.46,235.68 C62.91,234.31 67.29,232.41 70.21,231.45 C82.04,227.56 99.28,218.21 90.60,220.38 C87.86,221.07 82.00,218.54 82.00,216.66 C82.00,216.16 81.32,216.32 80.50,217.00 C79.50,217.83 79.00,217.88 79.00,217.15 C79.00,216.54 77.90,215.32 76.55,214.44 C74.21,212.91 73.90,212.97 70.30,215.60 C68.21,217.13 64.82,219.95 62.77,221.87 C60.72,223.80 58.78,225.12 58.47,224.81 C57.98,224.31 65.25,217.47 71.77,212.30 C73.78,210.70 73.92,210.11 73.01,207.00 C72.44,205.07 71.76,200.35 71.48,196.50 C71.21,192.65 70.57,187.93 70.06,186.00 C66.14,171.25 63.60,163.04 61.75,159.10 C58.84,152.91 58.16,139.92 60.40,133.34 C62.51,127.15 62.54,121.00 60.46,121.00 C59.61,121.00 59.03,120.44 59.18,119.75 C59.32,119.06 58.58,117.22 57.54,115.65 C55.67,112.85 55.68,112.68 57.66,105.15 C58.76,100.94 59.49,96.97 59.27,96.31 C59.03,95.58 55.74,97.16 50.69,100.44 C35.56,110.25 28.09,113.11 23.04,111.02 C18.94,109.32 18.21,106.02 20.95,101.58 C25.84,93.68 36.08,88.99 48.43,89.01 C58.94,89.03 61.35,89.79 89.00,101.76 C103.14,107.88 115.12,111.00 124.44,110.99 C136.77,110.98 155.98,105.40 167.44,98.49 L 173.14 95.06 L 183.22 99.50 C195.46,104.89 201.68,110.00 196.00,110.00 C192.35,110.00 194.06,113.34 198.23,114.36 C200.10,114.82 201.19,115.89 201.65,117.74 C202.02,119.23 203.12,121.13 204.09,121.97 C208.47,125.76 211.41,144.33 209.09,153.55 C208.41,156.24 206.84,159.09 205.30,160.42 L 202.67 162.68 L 204.81 167.12 C205.99,169.55 207.26,173.04 207.62,174.86 C208.04,176.97 209.14,178.56 210.64,179.25 C211.94,179.84 213.00,180.62 213.00,180.99 C213.00,181.36 214.64,183.31 216.65,185.32 C223.01,191.68 230.45,191.26 229.80,184.59 C229.56,182.15 228.45,180.79 224.50,178.13 C221.48,176.09 220.49,175.05 222.00,175.51 C226.38,176.82 232.00,180.00 232.00,181.17 C232.00,183.29 237.50,191.01 238.69,190.56 C240.22,189.98 240.73,193.44 239.85,198.50 C239.46,200.70 239.45,202.78 239.83,203.13 C240.20,203.48 242.64,204.07 245.25,204.44 L 250.00 205.12 L 250.00 215.09 L 246.25 214.51 C244.19,214.19 240.95,213.51 239.05,213.00 C237.15,212.48 235.51,212.16 235.39,212.28 C235.28,212.40 232.47,217.90 229.15,224.50 C225.82,231.10 220.37,240.21 217.03,244.75 ZM 143.05 155.64 C144.76,160.13 146.53,158.56 150.48,149.00 C151.96,145.43 154.00,141.82 155.01,141.00 C157.31,139.12 157.57,137.65 156.59,132.00 C154.95,122.57 149.98,120.00 145.78,126.41 C144.38,128.54 141.17,131.04 137.23,133.06 C133.75,134.85 130.42,137.25 129.83,138.40 C129.24,139.56 127.94,141.40 126.95,142.50 C125.96,143.60 124.50,146.40 123.70,148.71 C122.45,152.36 122.45,153.20 123.69,154.96 C124.47,156.08 125.75,157.00 126.52,157.00 C127.82,157.00 133.05,154.99 137.21,152.89 C139.58,151.70 141.98,152.83 143.05,155.64 ZM 250.00 115.38 L 244.75 113.99 C239.05,112.48 236.90,112.57 235.78,114.35 C235.24,115.21 234.55,115.19 233.06,114.26 C230.40,112.61 214.00,111.32 214.00,112.76 C214.00,113.34 213.10,113.58 212.00,113.29 C210.90,113.00 210.00,113.16 209.99,113.63 C209.99,114.78 202.24,115.19 201.55,114.08 C201.25,113.60 201.68,112.95 202.51,112.64 C203.62,112.21 204.00,110.42 204.00,105.65 C204.00,101.48 204.47,98.85 205.36,98.12 C206.10,97.50 211.60,96.50 217.57,95.90 C228.49,94.80 232.87,95.28 238.75,98.22 C241.90,99.79 241.56,101.06 238.16,100.38 C234.47,99.64 231.27,102.42 233.17,104.70 C234.01,105.72 235.47,106.02 237.73,105.66 C240.12,105.27 240.86,105.45 240.38,106.31 C239.91,107.13 240.12,107.12 241.05,106.25 C241.79,105.56 243.55,105.01 244.95,105.02 C246.35,105.02 247.05,105.36 246.50,105.77 C245.95,106.17 245.40,107.01 245.29,107.64 C245.13,108.49 245.69,108.49 247.53,107.64 L 249.98 106.50 L 249.99 53.25 L 250.00 0.00 L 250.00 115.38 ZM 12.20 238.25 C15.45,249.87 16.68,253.00 18.03,253.00 L 0.00 253.00 L 0.00 191.09 L 4.04 207.29 C6.26,216.21 9.94,230.14 12.20,238.25 ZM 197.25 209.64 C198.49,210.25 199.95,210.80 200.50,210.85 C202.90,211.06 205.09,207.86 206.16,202.58 C207.21,197.32 207.13,196.67 205.11,193.94 C203.91,192.32 202.43,188.51 201.83,185.49 C201.21,182.42 200.18,180.00 199.50,180.00 C198.82,180.00 197.10,179.08 195.66,177.95 C192.44,175.42 189.00,176.72 189.00,180.48 C189.00,181.80 188.54,183.16 187.98,183.51 C187.42,183.86 187.27,184.62 187.63,185.21 C188.67,186.89 188.05,198.23 186.84,199.69 C185.57,201.23 186.42,201.38 188.89,200.06 C190.33,199.29 190.86,199.72 191.89,202.56 C192.57,204.45 193.55,206.00 194.06,206.00 C194.58,206.00 195.00,206.57 195.00,207.26 C195.00,207.96 196.01,209.03 197.25,209.64 ZM 180.50 157.24 C185.90,158.46 190.59,155.68 195.89,148.11 C197.96,145.16 201.47,135.13 200.70,134.37 C200.43,134.09 199.68,135.43 199.05,137.35 C196.85,144.00 190.00,148.20 190.00,142.89 C190.00,140.54 188.65,140.50 184.84,142.75 C182.00,144.42 181.82,144.42 180.87,142.73 C179.59,140.44 178.00,141.44 178.00,144.54 C178.00,146.29 178.69,147.14 180.50,147.59 C184.13,148.50 183.56,150.67 179.50,151.43 C174.51,152.37 175.14,156.03 180.50,157.24 ZM 27.44 253.00 L 18.03 253.00 C19.42,253.00 19.82,251.73 20.23,245.96 C21.01,235.13 22.84,235.14 25.64,246.01 L 27.44 253.00 ZM 186.20 173.80 C188.73,176.33 189.36,175.18 190.36,166.13 C190.92,161.04 190.35,159.00 188.36,159.00 C186.17,159.00 185.61,161.76 187.29,164.33 C188.68,166.44 188.65,166.74 186.90,167.83 C184.75,169.17 184.41,172.01 186.20,173.80 ZM 48.39 248.42 C47.61,250.45 43.12,250.48 42.35,248.46 C41.59,246.49 44.73,243.00 47.27,243.00 C49.07,243.00 49.04,243.15 46.86,244.97 C45.56,246.05 44.97,246.95 45.55,246.97 C46.13,246.99 47.14,246.46 47.80,245.80 C49.14,244.46 49.43,245.72 48.39,248.42 ZM 24.55 200.93 C23.63,202.41 22.87,202.24 20.08,199.92 C17.95,198.15 17.84,197.73 19.14,196.43 C20.44,195.13 20.89,195.25 22.91,197.41 C24.18,198.75 24.91,200.34 24.55,200.93 ZM 195.07 135.75 C195.00,138.09 196.54,138.87 197.22,136.84 C197.43,136.20 197.40,134.29 197.15,132.59 C196.76,129.92 196.60,129.77 195.92,131.50 C195.49,132.60 195.11,134.51 195.07,135.75 ZM 155.50 166.00 C155.84,166.55 156.54,167.00 157.06,167.00 C157.58,167.00 158.00,166.55 158.00,166.00 C158.00,165.45 157.30,165.00 156.44,165.00 C155.58,165.00 155.16,165.45 155.50,166.00 ZM 242.00 107.00 C242.00,107.55 242.20,108.00 242.44,108.00 C242.68,108.00 243.16,107.55 243.50,107.00 C243.84,106.45 243.64,106.00 243.06,106.00 C242.48,106.00 242.00,106.45 242.00,107.00 ZM 247.00 109.00 C247.00,109.55 247.20,110.00 247.44,110.00 C247.68,110.00 248.16,109.55 248.50,109.00 C248.84,108.45 248.64,108.00 248.06,108.00 C247.48,108.00 247.00,108.45 247.00,109.00 Z" fill="rgb(96,44,47)"/>
<path d="M 12.20 238.25 C9.94,230.14 6.26,216.21 4.04,207.29 L 0.00 191.09 L 0.00 42.05 L 2.40 42.96 C3.72,43.47 5.10,44.35 5.46,44.94 C5.82,45.52 6.96,46.00 7.99,46.00 C9.02,46.00 10.46,46.60 11.19,47.33 C11.92,48.07 13.24,48.67 14.12,48.67 C15.42,48.67 15.84,46.97 16.36,39.58 C16.72,34.59 17.60,28.02 18.33,25.00 L 19.65 19.50 L 19.73 26.00 C19.77,29.58 20.30,33.77 20.90,35.32 C21.51,36.86 22.00,39.25 22.00,40.62 C22.00,42.03 22.44,42.85 23.00,42.50 C23.55,42.16 24.00,42.72 24.00,43.74 C24.00,46.48 29.90,51.57 34.50,52.79 C42.38,54.89 47.53,57.18 49.50,59.47 C50.60,60.74 52.83,62.09 54.45,62.46 C56.36,62.90 56.96,63.40 56.16,63.90 C55.49,64.32 55.17,65.30 55.47,66.08 C55.76,66.86 56.16,68.92 56.36,70.66 C56.63,73.02 56.37,73.69 55.36,73.31 C54.61,73.02 54.00,73.24 54.00,73.79 C54.00,74.34 54.67,75.05 55.50,75.36 C56.33,75.68 57.00,76.32 57.00,76.78 C57.00,78.11 50.00,81.11 48.68,80.36 C48.03,79.98 47.85,80.06 48.27,80.53 C49.43,81.80 41.23,86.50 35.11,88.07 C31.33,89.04 28.26,90.76 24.86,93.82 C22.19,96.22 20.00,98.66 20.00,99.25 C20.00,99.83 20.90,99.49 22.01,98.49 C23.72,96.94 25.52,95.71 28.69,94.03 C25.45,96.02 22.81,98.57 20.95,101.58 C18.21,106.02 18.94,109.32 23.04,111.02 C28.09,113.11 35.56,110.25 50.69,100.44 C55.74,97.16 59.03,95.58 59.27,96.31 C59.49,96.97 58.76,100.94 57.66,105.15 C55.68,112.68 55.67,112.85 57.54,115.65 C58.58,117.22 59.32,119.06 59.18,119.75 C59.03,120.44 59.61,121.00 60.46,121.00 C62.54,121.00 62.51,127.15 60.40,133.34 C58.16,139.92 58.84,152.91 61.75,159.10 C63.60,163.04 66.14,171.25 70.06,186.00 C70.57,187.93 71.21,192.65 71.48,196.50 C71.76,200.35 72.44,205.07 73.01,207.00 C73.92,210.11 73.78,210.70 71.77,212.30 C65.25,217.47 57.98,224.31 58.47,224.81 C58.78,225.12 60.72,223.80 62.77,221.87 C64.82,219.95 68.21,217.13 70.30,215.60 C73.90,212.97 74.21,212.91 76.55,214.44 C77.90,215.32 79.00,216.54 79.00,217.15 C79.00,217.88 79.50,217.83 80.50,217.00 C81.32,216.32 82.00,216.16 82.00,216.66 C82.00,218.54 87.86,221.07 90.60,220.38 C96.30,218.96 90.82,222.49 83.04,226.20 C86.89,224.14 88.48,222.41 87.00,221.50 C86.40,221.13 85.27,221.06 84.50,221.36 C83.58,221.72 83.29,221.40 83.66,220.44 C84.05,219.44 83.75,219.16 82.71,219.56 C81.82,219.90 79.94,218.89 78.07,217.07 C76.34,215.38 74.36,214.00 73.65,214.00 C72.95,214.00 69.17,216.69 65.26,219.99 C59.19,225.10 57.57,227.18 54.20,234.24 C49.55,243.99 48.65,246.62 49.50,248.01 C50.81,250.12 54.75,246.59 55.76,243.03 C55.48,244.31 54.96,245.65 54.38,246.54 C52.84,248.89 52.87,249.00 54.88,249.00 C56.31,249.00 57.00,248.37 57.00,247.06 C57.00,244.74 58.19,243.89 63.50,242.37 C75.16,239.05 94.94,230.38 98.50,227.03 C101.39,224.32 108.96,220.00 110.83,220.00 C111.33,220.00 112.50,222.81 113.44,226.25 C114.38,229.69 116.51,236.32 118.18,241.00 C119.84,245.68 121.44,250.29 121.72,251.25 C122.20,252.90 119.51,253.00 74.84,253.00 L 27.44 253.00 L 25.64 246.01 C22.84,235.14 21.01,235.13 20.23,245.96 C19.82,251.73 19.42,253.00 18.03,253.00 C16.68,253.00 15.45,249.87 12.20,238.25 ZM 197.88 108.38 C199.91,110.40 201.92,111.86 202.46,111.68 C203.03,111.50 203.64,108.69 203.81,105.46 C203.90,103.71 204.04,102.29 204.26,101.15 C204.09,102.35 204.00,103.86 204.00,105.65 C204.00,110.42 203.62,112.21 202.51,112.64 C201.68,112.95 201.25,113.60 201.55,114.08 C202.24,115.19 209.99,114.78 209.99,113.63 C210.00,113.16 210.90,113.00 212.00,113.29 C213.10,113.58 214.00,113.34 214.00,112.76 C214.00,111.32 230.40,112.61 233.06,114.26 C234.55,115.19 235.24,115.21 235.78,114.35 C236.90,112.57 239.05,112.48 244.75,113.99 L 250.00 115.38 L 250.00 189.40 L 246.68 188.20 C244.85,187.54 242.89,187.00 242.31,187.00 C241.74,187.00 240.82,191.17 240.19,196.00 C240.52,192.35 239.95,190.08 238.69,190.56 C237.50,191.01 232.00,183.29 232.00,181.17 C232.00,180.00 226.38,176.82 222.00,175.51 C220.49,175.05 221.48,176.09 224.50,178.13 C228.45,180.79 229.56,182.15 229.80,184.59 C230.45,191.26 223.01,191.68 216.65,185.32 C214.64,183.31 213.00,181.36 213.00,180.99 C213.00,180.62 211.94,179.84 210.64,179.25 C209.14,178.56 208.04,176.97 207.62,174.86 C207.26,173.04 205.99,169.55 204.81,167.12 L 202.67 162.68 L 205.30 160.42 C206.84,159.09 208.41,156.24 209.09,153.55 C211.41,144.33 208.47,125.76 204.09,121.97 C203.12,121.13 202.02,119.23 201.65,117.74 C201.19,115.89 200.10,114.82 198.23,114.36 C194.06,113.34 192.35,110.00 196.00,110.00 C197.96,110.00 198.50,109.39 197.88,108.38 ZM 233.50 17.00 C240.65,17.97 247.29,18.82 248.25,18.89 C249.73,18.98 249.98,18.03 250.00,10.69 L 250.00 27.29 L 239.25 25.57 C233.34,24.62 224.90,23.22 220.50,22.46 C204.76,19.74 188.43,17.07 184.50,16.57 C182.30,16.29 176.45,15.38 171.50,14.55 C166.55,13.71 160.67,13.03 158.44,13.02 C156.21,13.01 153.51,12.34 152.44,11.53 C151.29,10.66 148.06,10.02 144.50,9.95 C141.20,9.88 136.02,9.46 133.00,9.01 C122.71,7.47 100.53,3.95 90.50,2.27 C76.86,-0.01 25.01,-0.77 23.85,1.30 C23.03,2.77 17.40,2.45 16.43,0.88 C16.13,0.40 12.31,0.00 7.94,0.00 L 187.94 0.00 C153.81,0.00 126.11,0.37 126.40,0.83 C126.68,1.29 134.69,2.68 144.20,3.93 C153.72,5.18 168.25,7.34 176.50,8.73 C184.75,10.13 194.43,11.63 198.00,12.08 C201.57,12.54 208.10,13.43 212.50,14.06 C216.90,14.70 226.35,16.02 233.50,17.00 ZM 143.05 155.64 C141.98,152.83 139.58,151.70 137.21,152.89 C133.05,154.99 127.82,157.00 126.52,157.00 C125.75,157.00 124.47,156.08 123.69,154.96 C122.45,153.20 122.45,152.36 123.70,148.71 C124.50,146.40 125.96,143.60 126.95,142.50 C127.94,141.40 129.24,139.56 129.83,138.40 C130.42,137.25 133.75,134.85 137.23,133.06 C141.17,131.04 144.38,128.54 145.78,126.41 C149.98,120.00 154.95,122.57 156.59,132.00 C157.57,137.65 157.31,139.12 155.01,141.00 C154.00,141.82 151.96,145.43 150.48,149.00 C146.53,158.56 144.76,160.13 143.05,155.64 ZM 197.25 209.64 C196.01,209.03 195.00,207.96 195.00,207.26 C195.00,206.57 194.58,206.00 194.06,206.00 C193.55,206.00 192.57,204.45 191.89,202.56 C190.86,199.72 190.33,199.29 188.89,200.06 C186.42,201.38 185.57,201.23 186.84,199.69 C188.05,198.23 188.67,186.89 187.63,185.21 C187.27,184.62 187.42,183.86 187.98,183.51 C188.54,183.16 189.00,181.80 189.00,180.48 C189.00,176.72 192.44,175.42 195.66,177.95 C197.10,179.08 198.82,180.00 199.50,180.00 C200.18,180.00 201.21,182.42 201.83,185.49 C202.43,188.51 203.91,192.32 205.11,193.94 C207.13,196.67 207.21,197.32 206.16,202.58 C205.09,207.86 202.90,211.06 200.50,210.85 C199.95,210.80 198.49,210.25 197.25,209.64 ZM 51.00 224.00 C53.47,224.99 55.80,225.85 56.16,225.90 C56.52,225.96 58.70,223.75 61.00,221.00 C64.08,217.32 64.74,216.00 63.51,216.00 C62.59,216.00 53.54,213.22 43.39,209.83 C30.38,205.48 24.63,203.97 23.88,204.72 C23.30,205.30 22.75,207.28 22.66,209.11 C22.48,212.95 23.64,213.71 38.00,219.04 C42.67,220.78 48.53,223.01 51.00,224.00 ZM 205.62 97.96 C206.31,97.27 207.23,97.00 208.47,97.00 C209.69,97.00 211.50,96.10 212.50,95.00 C214.48,92.81 217.61,92.34 218.21,94.13 C218.71,95.64 223.03,94.26 222.73,92.69 C222.60,92.04 222.05,91.17 221.50,90.77 C220.95,90.36 221.74,90.02 223.25,90.02 C224.76,90.01 226.00,90.45 226.00,91.00 C226.00,91.55 227.24,92.01 228.75,92.02 C230.89,92.03 231.17,92.24 230.00,93.00 C229.18,93.53 229.01,93.98 229.63,93.98 C230.25,93.99 231.32,93.32 232.00,92.50 C233.00,91.29 232.98,91.00 231.90,91.00 C231.16,91.00 231.64,90.24 232.97,89.31 C235.34,87.65 240.98,87.37 247.25,88.61 L 249.99 89.16 L 249.98 106.50 L 247.53 107.64 C245.69,108.49 245.13,108.49 245.29,107.64 C245.40,107.01 245.95,106.17 246.50,105.77 C247.05,105.36 246.35,105.02 244.95,105.02 C243.55,105.01 241.79,105.56 241.05,106.25 C240.12,107.12 239.91,107.13 240.38,106.31 C240.86,105.45 240.12,105.27 237.73,105.66 C235.47,106.02 234.01,105.72 233.17,104.70 C231.27,102.42 234.47,99.64 238.16,100.38 C241.56,101.06 241.90,99.79 238.75,98.22 C232.87,95.28 228.49,94.80 217.57,95.90 C212.07,96.45 206.98,97.34 205.62,97.96 ZM 180.50 157.24 C175.14,156.03 174.51,152.37 179.50,151.43 C183.56,150.67 184.13,148.50 180.50,147.59 C178.69,147.14 178.00,146.29 178.00,144.54 C178.00,141.44 179.59,140.44 180.87,142.73 C181.82,144.42 182.00,144.42 184.84,142.75 C188.65,140.50 190.00,140.54 190.00,142.89 C190.00,148.20 196.85,144.00 199.05,137.35 C199.68,135.43 200.43,134.09 200.70,134.37 C201.47,135.13 197.96,145.16 195.89,148.11 C190.59,155.68 185.90,158.46 180.50,157.24 ZM 76.75 246.93 C78.81,248.02 80.95,248.78 81.50,248.63 C82.78,248.27 84.73,244.22 85.16,241.01 C85.46,238.79 85.12,238.51 82.00,238.38 C74.97,238.09 73.00,238.89 73.00,242.06 C73.00,244.38 73.73,245.34 76.75,246.93 ZM 186.20 173.80 C184.41,172.01 184.75,169.17 186.90,167.83 C188.65,166.74 188.68,166.44 187.29,164.33 C185.61,161.76 186.17,159.00 188.36,159.00 C190.35,159.00 190.92,161.04 190.36,166.13 C189.36,175.18 188.73,176.33 186.20,173.80 ZM 241.52 182.94 C245.91,184.57 249.61,185.92 249.75,185.95 C249.89,185.98 250.00,185.37 250.00,184.60 C250.00,183.74 247.03,182.23 242.25,180.68 C237.99,179.30 233.60,177.84 232.50,177.44 C230.69,176.78 230.64,176.87 232.02,178.35 C232.86,179.24 237.14,181.31 241.52,182.94 ZM 48.39 248.42 C49.43,245.72 49.14,244.46 47.80,245.80 C47.14,246.46 46.13,246.99 45.55,246.97 C44.97,246.95 45.56,246.05 46.86,244.97 C49.04,243.15 49.07,243.00 47.27,243.00 C44.73,243.00 41.59,246.49 42.35,248.46 C43.12,250.48 47.61,250.45 48.39,248.42 ZM 58.18 246.76 C57.92,248.56 58.35,249.00 60.31,249.00 C63.63,249.00 65.53,246.69 63.56,245.05 C61.42,243.27 58.55,244.18 58.18,246.76 ZM 24.55 200.93 C24.91,200.34 24.18,198.75 22.91,197.41 C20.89,195.25 20.44,195.13 19.14,196.43 C17.84,197.73 17.95,198.15 20.08,199.92 C22.87,202.24 23.63,202.41 24.55,200.93 ZM 235.61 103.42 C236.33,105.30 238.14,105.46 239.80,103.80 C241.75,101.85 241.20,101.00 238.00,101.00 C234.76,101.00 234.70,101.06 235.61,103.42 ZM 195.07 135.75 C195.11,134.51 195.49,132.60 195.92,131.50 C196.60,129.77 196.76,129.92 197.15,132.59 C197.40,134.29 197.43,136.20 197.22,136.84 C196.54,138.87 195.00,138.09 195.07,135.75 ZM 238.00 85.00 C238.00,86.10 237.55,87.00 237.00,87.00 C236.45,87.00 236.00,86.10 236.00,85.00 C236.00,83.90 236.45,83.00 237.00,83.00 C237.55,83.00 238.00,83.90 238.00,85.00 ZM 224.50 114.00 C224.84,114.55 225.54,115.00 226.06,115.00 C226.58,115.00 227.00,114.55 227.00,114.00 C227.00,113.45 226.30,113.00 225.44,113.00 C224.58,113.00 224.16,113.45 224.50,114.00 ZM 155.50 166.00 C155.16,165.45 155.58,165.00 156.44,165.00 C157.30,165.00 158.00,165.45 158.00,166.00 C158.00,166.55 157.58,167.00 157.06,167.00 C156.54,167.00 155.84,166.55 155.50,166.00 ZM 242.00 107.00 C242.00,106.45 242.48,106.00 243.06,106.00 C243.64,106.00 243.84,106.45 243.50,107.00 C243.16,107.55 242.68,108.00 242.44,108.00 C242.20,108.00 242.00,107.55 242.00,107.00 ZM 247.00 109.00 C247.00,108.45 247.48,108.00 248.06,108.00 C248.64,108.00 248.84,108.45 248.50,109.00 C248.16,109.55 247.68,110.00 247.44,110.00 C247.20,110.00 247.00,109.55 247.00,109.00 ZM 53.81 76.32 C53.01,76.64 53.25,76.87 54.42,76.92 C55.47,76.96 56.06,76.73 55.73,76.40 C55.40,76.06 54.53,76.03 53.81,76.32 ZM 247.87 204.82 C248.44,204.81 248.85,204.70 249.16,204.45 C249.85,203.90 249.98,202.63 250.00,200.20 L 250.00 205.12 ZM 60.82 90.46 C64.58,91.44 68.45,92.93 80.12,97.93 C70.67,93.89 65.10,91.68 60.82,90.46 ZM 239.97 197.74 C239.80,199.24 239.66,200.75 239.58,202.19 C239.51,201.30 239.60,199.93 239.85,198.50 C239.89,198.24 239.93,197.99 239.97,197.74 ZM 179.75 97.97 L 183.39 99.57 C187.10,101.19 190.08,102.69 192.46,104.15 C190.03,102.71 186.90,101.12 183.22,99.50 ZM 33.15 91.78 C34.43,91.18 36.02,90.67 37.83,90.26 C36.19,90.67 34.63,91.18 33.15,91.78 ZM 239.66 202.78 C239.88,203.07 240.44,203.38 241.19,203.65 C240.47,203.46 239.98,203.28 239.83,203.13 C239.76,203.07 239.70,202.95 239.66,202.78 ZM 60.46 235.68 C62.91,234.31 67.29,232.40 70.19,231.44 C71.14,231.12 72.07,230.80 72.96,230.48 C72.02,230.83 71.10,231.16 70.21,231.45 C67.29,232.41 62.91,234.31 60.46,235.68 ZM 56.34 239.06 C56.83,237.89 57.96,237.08 60.46,235.68 C58.00,237.05 56.84,237.92 56.34,239.06 Z" fill="rgb(127,117,114)"/>
<path d="M 33.15 91.78 C31.56,92.43 30.07,93.18 28.69,94.03 C25.52,95.71 23.72,96.94 22.01,98.49 C20.90,99.49 20.00,99.83 20.00,99.25 C20.00,98.66 22.19,96.22 24.86,93.82 C28.26,90.76 31.33,89.04 35.11,88.07 C41.23,86.50 49.43,81.80 48.27,80.53 C47.85,80.06 48.03,79.98 48.68,80.36 C50.00,81.11 57.00,78.11 57.00,76.78 C57.00,76.32 56.33,75.68 55.50,75.36 C54.67,75.05 54.00,74.34 54.00,73.79 C54.00,73.24 54.61,73.02 55.36,73.31 C56.37,73.69 56.63,73.02 56.36,70.66 C56.16,68.92 55.76,66.86 55.47,66.08 C55.17,65.30 55.49,64.32 56.16,63.90 C56.96,63.40 56.36,62.90 54.45,62.46 C52.83,62.09 50.60,60.74 49.50,59.47 C47.53,57.18 42.38,54.89 34.50,52.79 C29.90,51.57 24.00,46.48 24.00,43.74 C24.00,42.72 23.55,42.16 23.00,42.50 C22.44,42.85 22.00,42.03 22.00,40.62 C22.00,39.25 21.51,36.86 20.90,35.32 C20.30,33.77 19.77,29.58 19.73,26.00 L 19.65 19.50 L 18.33 25.00 C17.60,28.02 16.72,34.59 16.36,39.58 C15.84,46.97 15.42,48.67 14.12,48.67 C13.24,48.67 11.92,48.07 11.19,47.33 C10.46,46.60 9.02,46.00 7.99,46.00 C6.96,46.00 5.82,45.52 5.46,44.94 C5.10,44.35 3.72,43.47 2.40,42.96 L 0.00 42.05 L 0.00 0.00 L 7.94 0.00 C12.31,0.00 16.13,0.40 16.43,0.88 C17.40,2.45 23.03,2.77 23.85,1.30 C25.01,-0.77 76.86,-0.01 90.50,2.27 C100.53,3.95 122.71,7.47 133.00,9.01 C136.02,9.46 141.20,9.88 144.50,9.95 C147.41,10.00 150.10,10.44 151.62,11.08 C148.93,10.28 143.19,9.95 131.50,9.86 L 113.50 9.73 L 103.50 13.79 C90.20,19.19 85.30,22.04 79.53,27.73 C70.40,36.73 69.80,38.44 66.51,65.00 C66.08,68.46 65.02,70.47 61.96,73.69 C57.25,78.63 45.82,85.12 37.80,87.40 C34.67,88.30 31.83,89.47 31.49,90.01 C31.10,90.64 31.72,90.68 33.20,90.11 C34.91,89.47 39.88,89.13 45.19,89.12 C42.61,89.29 40.15,89.68 37.83,90.26 C36.02,90.67 34.43,91.18 33.15,91.78 ZM 205.62 97.96 C205.51,98.02 205.42,98.07 205.36,98.12 C204.90,98.50 204.55,99.39 204.32,100.73 C204.34,100.49 204.35,100.24 204.36,100.00 C204.65,94.22 205.19,84.10 205.56,77.50 C206.32,63.89 205.31,56.54 201.52,48.27 C198.35,41.33 195.58,38.09 186.14,30.21 C179.46,24.65 174.47,21.79 154.93,12.56 C156.04,12.84 157.30,13.01 158.44,13.02 C160.67,13.03 166.55,13.71 171.50,14.55 C176.45,15.38 182.30,16.29 184.50,16.57 C188.43,17.07 204.76,19.74 220.50,22.46 C224.90,23.22 233.34,24.62 239.25,25.57 L 250.00 27.29 L 249.99 53.25 L 249.99 89.16 L 247.25 88.61 C240.98,87.37 235.34,87.65 232.97,89.31 C231.64,90.24 231.16,91.00 231.90,91.00 C232.98,91.00 233.00,91.29 232.00,92.50 C231.32,93.32 230.25,93.99 229.63,93.98 C229.01,93.98 229.18,93.53 230.00,93.00 C231.17,92.24 230.89,92.03 228.75,92.02 C227.24,92.01 226.00,91.55 226.00,91.00 C226.00,90.45 224.76,90.01 223.25,90.02 C221.74,90.02 220.95,90.36 221.50,90.77 C222.05,91.17 222.60,92.04 222.73,92.69 C223.03,94.26 218.71,95.64 218.21,94.13 C217.61,92.34 214.48,92.81 212.50,95.00 C211.50,96.10 209.69,97.00 208.47,97.00 C207.23,97.00 206.31,97.27 205.62,97.96 ZM 233.50 17.00 C226.35,16.02 216.90,14.70 212.50,14.06 C208.10,13.43 201.57,12.54 198.00,12.08 C194.43,11.63 184.75,10.13 176.50,8.73 C168.25,7.34 153.72,5.18 144.20,3.93 C134.69,2.68 126.68,1.29 126.40,0.83 C126.11,0.37 153.81,0.00 187.94,0.00 L 250.00 0.00 L 250.00 10.69 C249.98,18.03 249.73,18.98 248.25,18.89 C247.29,18.82 240.65,17.97 233.50,17.00 ZM 217.03 244.75 C220.37,240.21 225.82,231.10 229.15,224.50 C232.47,217.90 235.28,212.40 235.39,212.28 C235.51,212.16 237.15,212.48 239.05,213.00 C240.95,213.51 244.19,214.19 246.25,214.51 L 250.00 215.09 L 250.00 253.00 L 210.95 253.00 ZM 56.34 239.06 C56.09,239.64 56.00,240.30 56.00,241.12 C56.00,241.68 55.91,242.35 55.76,243.03 C54.75,246.59 50.81,250.12 49.50,248.01 C48.65,246.62 49.55,243.99 54.20,234.24 C57.57,227.18 59.19,225.10 65.26,219.99 C69.17,216.69 72.95,214.00 73.65,214.00 C74.36,214.00 76.34,215.38 78.07,217.07 C79.94,218.89 81.82,219.90 82.71,219.56 C83.75,219.16 84.05,219.44 83.66,220.44 C83.29,221.40 83.58,221.72 84.50,221.36 C85.27,221.06 86.40,221.13 87.00,221.50 C88.48,222.41 86.89,224.14 83.04,226.20 C79.87,227.71 76.30,229.25 72.96,230.48 C72.07,230.80 71.14,231.12 70.19,231.44 C67.29,232.40 62.91,234.31 60.46,235.68 C57.96,237.08 56.83,237.89 56.34,239.06 ZM 51.00 224.00 C48.53,223.01 42.67,220.78 38.00,219.04 C23.64,213.71 22.48,212.95 22.66,209.11 C22.75,207.28 23.30,205.30 23.88,204.72 C24.63,203.97 30.38,205.48 43.39,209.83 C53.54,213.22 62.59,216.00 63.51,216.00 C64.74,216.00 64.08,217.32 61.00,221.00 C58.70,223.75 56.52,225.96 56.16,225.90 C55.80,225.85 53.47,224.99 51.00,224.00 ZM 76.75 246.93 C73.73,245.34 73.00,244.38 73.00,242.06 C73.00,238.89 74.97,238.09 82.00,238.38 C85.12,238.51 85.46,238.79 85.16,241.01 C84.73,244.22 82.78,248.27 81.50,248.63 C80.95,248.78 78.81,248.02 76.75,246.93 ZM 58.18 246.76 C58.55,244.18 61.42,243.27 63.56,245.05 C65.53,246.69 63.63,249.00 60.31,249.00 C58.35,249.00 57.92,248.56 58.18,246.76 ZM 197.88 108.38 C197.23,107.33 195.33,105.85 192.46,104.15 C190.08,102.69 187.10,101.19 183.39,99.57 L 183.67 99.69 C189.47,102.23 195.51,105.40 197.11,106.74 C198.70,108.08 200.00,108.69 200.00,108.09 C200.00,107.49 199.66,107.00 199.24,107.00 C198.82,107.00 197.95,106.15 197.30,105.11 C196.17,103.30 196.25,103.28 199.06,104.68 C201.37,105.83 202.00,106.81 202.00,109.27 C202.00,110.74 202.21,111.58 202.56,111.63 C202.53,111.66 202.50,111.67 202.46,111.68 C201.92,111.86 199.91,110.40 197.88,108.38 ZM 235.61 103.42 C234.70,101.06 234.76,101.00 238.00,101.00 C241.20,101.00 241.75,101.85 239.80,103.80 C238.14,105.46 236.33,105.30 235.61,103.42 ZM 244.98 202.43 C245.37,203.46 245.98,204.24 246.71,204.65 L 245.25 204.44 C243.71,204.22 242.22,203.93 241.19,203.65 C241.17,203.64 241.14,203.63 241.12,203.63 C241.87,203.14 242.49,201.80 242.24,200.45 C241.96,199.03 242.24,198.00 242.88,198.00 C243.50,198.00 244.00,198.42 244.00,198.93 C244.00,199.45 244.44,201.02 244.98,202.43 ZM 238.59 245.27 L 239.30 247.50 L 240.28 245.31 C240.82,244.10 240.94,242.30 240.56,241.31 C239.90,239.58 239.82,239.58 238.87,241.27 C238.33,242.24 238.20,244.04 238.59,245.27 ZM 239.72 182.24 C236.02,180.76 232.75,179.12 232.02,178.35 C230.64,176.87 230.69,176.78 232.50,177.44 C233.60,177.84 237.99,179.30 242.25,180.68 C243.17,180.98 244.02,181.28 244.80,181.57 C244.21,181.37 243.58,181.17 242.90,180.97 C233.60,178.20 232.90,179.38 239.72,182.24 ZM 238.00 85.00 C238.00,83.90 237.55,83.00 237.00,83.00 C236.45,83.00 236.00,83.90 236.00,85.00 C236.00,86.10 236.45,87.00 237.00,87.00 C237.55,87.00 238.00,86.10 238.00,85.00 ZM 224.50 114.00 C224.16,113.45 224.58,113.00 225.44,113.00 C226.30,113.00 227.00,113.45 227.00,114.00 C227.00,114.55 226.58,115.00 226.06,115.00 C225.54,115.00 224.84,114.55 224.50,114.00 ZM 53.81 76.32 C54.53,76.03 55.40,76.06 55.73,76.40 C56.06,76.73 55.47,76.96 54.42,76.92 C53.25,76.87 53.01,76.64 53.81,76.32 ZM 242.21 187.04 C242.24,187.01 242.28,187.00 242.31,187.00 C242.89,187.00 244.85,187.54 246.68,188.20 L 247.41 188.47 L 246.00 188.00 C244.41,187.48 242.96,187.12 242.21,187.04 ZM 239.97 197.74 C240.06,197.13 240.14,196.55 240.19,196.00 C240.24,195.58 240.30,195.18 240.35,194.78 C239.95,197.97 239.63,201.24 239.62,202.59 C239.60,202.47 239.59,202.34 239.58,202.19 C239.66,200.75 239.80,199.24 239.97,197.74 ZM 58.83 89.95 C59.14,90.01 59.43,90.07 59.69,90.13 C61.60,90.61 63.39,91.15 66.07,92.14 C63.94,91.36 62.37,90.87 60.82,90.46 C60.13,90.27 59.47,90.10 58.83,89.95 ZM 249.80 203.21 C249.97,202.07 250.00,200.20 250.00,197.16 L 250.00 200.20 C249.99,201.53 249.95,202.51 249.80,203.21 ZM 246.99 184.96 C248.55,185.51 249.66,185.90 249.75,185.93 C249.88,185.97 250.00,185.37 250.00,184.59 L 250.00 184.60 C250.00,185.37 249.89,185.98 249.75,185.95 C249.68,185.94 248.62,185.55 246.99,184.96 Z" fill="rgb(154,153,153)"/>
<path d="M 238.59 245.27 C238.20,244.04 238.33,242.24 238.87,241.27 C239.82,239.58 239.90,239.58 240.56,241.31 C240.94,242.30 240.82,244.10 240.28,245.31 L 239.30 247.50 L 238.59 245.27 ZM 244.98 202.43 C244.44,201.02 244.00,199.45 244.00,198.93 C244.00,198.42 243.50,198.00 242.88,198.00 C242.24,198.00 241.96,199.03 242.24,200.45 C242.67,202.72 240.62,204.93 239.68,203.21 C239.28,202.48 241.09,187.83 241.67,187.09 C241.85,186.86 243.79,187.27 246.00,188.00 L 250.00 189.32 L 250.00 197.16 C250.00,204.37 249.84,205.00 247.98,205.00 C246.72,205.00 245.58,204.02 244.98,202.43 ZM 244.38 184.03 C232.94,179.96 231.84,177.68 242.90,180.97 C247.49,182.34 250.00,183.60 250.00,184.54 C250.00,185.34 249.89,185.97 249.75,185.93 C249.61,185.89 247.20,185.03 244.38,184.03 ZM 202.00 109.27 C202.00,106.81 201.37,105.83 199.06,104.68 C196.25,103.28 196.17,103.30 197.30,105.11 C197.95,106.15 198.82,107.00 199.24,107.00 C199.66,107.00 200.00,107.49 200.00,108.09 C200.00,108.69 198.70,108.08 197.11,106.74 C195.51,105.40 189.47,102.23 183.67,99.69 L 173.12 95.07 L 167.44 98.50 C155.98,105.40 136.76,110.98 124.44,110.99 C115.13,111.00 103.14,107.88 89.00,101.76 C68.70,92.98 64.59,91.35 59.69,90.13 C54.26,88.79 36.73,88.77 33.20,90.11 C31.72,90.68 31.10,90.64 31.49,90.01 C31.83,89.47 34.67,88.30 37.80,87.40 C45.82,85.12 57.25,78.63 61.96,73.69 C65.02,70.47 66.08,68.46 66.51,65.00 C69.80,38.44 70.40,36.73 79.53,27.73 C85.30,22.04 90.20,19.19 103.50,13.79 L 113.50 9.73 L 131.50 9.86 C144.68,9.96 150.30,10.37 152.50,11.41 C174.07,21.56 179.19,24.42 186.14,30.21 C195.58,38.09 198.35,41.33 201.52,48.27 C205.31,56.54 206.32,63.89 205.56,77.50 C205.19,84.10 204.65,94.22 204.36,100.00 C204.07,105.78 203.42,110.93 202.92,111.45 C202.35,112.03 202.00,111.20 202.00,109.27 Z" fill="rgb(224,225,243)"/>
</g>
</svg>